<svg width="23" height="22" viewBox="0 0 23 22" fill="none" xmlns="http://www.w3.org/2000/svg">
<g filter="url(#filter0_d_451_7640)">
<ellipse cx="11.5" cy="11" rx="5.5" ry="5" fill="#55D168"/>
<path d="M11.5 18C15.4585 18 19 15.0411 19 11C19 6.9589 15.4585 4 11.5 4C7.54151 4 4 6.9589 4 11C4 15.0411 7.54151 18 11.5 18Z" stroke="white" stroke-width="4"/>
<path d="M11.5 18C15.4585 18 19 15.0411 19 11C19 6.9589 15.4585 4 11.5 4C7.54151 4 4 6.9589 4 11C4 15.0411 7.54151 18 11.5 18Z" stroke="white" stroke-width="4"/>
</g>
<defs>
<filter id="filter0_d_451_7640" x="0" y="0" width="23" height="22" filterUnits="userSpaceOnUse" color-interpolation-filters="sRGB">
<feFlood flood-opacity="0" result="BackgroundImageFix"/>
<feColorMatrix in="SourceAlpha" type="matrix" values="0 0 0 0 0 0 0 0 0 0 0 0 0 0 0 0 0 0 127 0" result="hardAlpha"/>
<feMorphology radius="2" operator="dilate" in="SourceAlpha" result="effect1_dropShadow_451_7640"/>
<feOffset/>
<feComposite in2="hardAlpha" operator="out"/>
<feColorMatrix type="matrix" values="0 0 0 0 0.333333 0 0 0 0 0.819608 0 0 0 0 0.407843 0 0 0 1 0"/>
<feBlend mode="normal" in2="BackgroundImageFix" result="effect1_dropShadow_451_7640"/>
<feBlend mode="normal" in="SourceGraphic" in2="effect1_dropShadow_451_7640" result="shape"/>
</filter>
</defs>
</svg>
