<svg aria-hidden="true" style="position: absolute; width: 0; height: 0; overflow: hidden;" version="1.1" xmlns="http://www.w3.org/2000/svg" xmlns:xlink="http://www.w3.org/1999/xlink">
<defs>
<symbol id="icon-Microsoft" viewBox="0 0 31 32">
<path fill="#f25022" style="fill: var(--color1, #f25022)" d="M14.545 2.182h-13.091v13.091h13.091v-13.091z"></path>
<path fill="#00a4ef" style="fill: var(--color2, #00a4ef)" d="M14.545 16.727h-13.091v13.091h13.091v-13.091z"></path>
<path fill="#7fba00" style="fill: var(--color3, #7fba00)" d="M29.091 2.182h-13.091v13.091h13.091v-13.091z"></path>
<path fill="#ffb900" style="fill: var(--color4, #ffb900)" d="M29.091 16.727h-13.091v13.091h13.091v-13.091z"></path>
</symbol>
<symbol id="icon-Apple" viewBox="0 0 32 32">
<path d="M28.374 24.565c-0.464 1.071-1.013 2.058-1.649 2.964-0.867 1.236-1.577 2.092-2.124 2.567-0.848 0.78-1.757 1.179-2.73 1.202-0.699 0-1.541-0.199-2.521-0.602-0.984-0.401-1.888-0.6-2.714-0.6-0.867 0-1.797 0.199-2.791 0.6-0.996 0.403-1.799 0.613-2.412 0.634-0.933 0.040-1.863-0.371-2.791-1.234-0.592-0.517-1.334-1.403-2.221-2.658-0.953-1.34-1.736-2.894-2.349-4.666-0.657-1.914-0.986-3.767-0.986-5.561 0-2.055 0.444-3.828 1.334-5.313 0.699-1.193 1.629-2.134 2.793-2.825s2.422-1.043 3.776-1.066c0.741 0 1.713 0.229 2.921 0.68 1.204 0.452 1.977 0.681 2.317 0.681 0.253 0 1.113-0.268 2.569-0.802 1.377-0.496 2.539-0.701 3.492-0.62 2.58 0.208 4.518 1.225 5.808 3.058-2.308 1.398-3.449 3.356-3.426 5.869 0.021 1.957 0.731 3.585 2.126 4.878 0.632 0.6 1.338 1.064 2.124 1.393-0.17 0.494-0.35 0.967-0.541 1.422zM22.457 1.28c0 1.534-0.56 2.966-1.677 4.291-1.348 1.576-2.978 2.486-4.746 2.343-0.023-0.184-0.036-0.378-0.036-0.581 0-1.472 0.641-3.048 1.779-4.336 0.568-0.652 1.291-1.195 2.167-1.627 0.875-0.426 1.702-0.662 2.48-0.702 0.023 0.205 0.032 0.41 0.032 0.613v0z"></path>
</symbol>
<symbol id="icon-Google" viewBox="0 0 32 32">
<path fill="#fbbb00" style="fill: var(--color1, #fbbb00)" d="M7.092 19.338l-1.114 4.158-4.071 0.086c-1.217-2.257-1.907-4.839-1.907-7.582 0-2.653 0.645-5.155 1.789-7.358h0.001l3.624 0.665 1.588 3.603c-0.332 0.969-0.513 2.009-0.513 3.091 0 1.175 0.213 2.3 0.603 3.338z"></path>
<path fill="#518ef8" style="fill: var(--color2, #518ef8)" d="M31.72 13.011c0.184 0.968 0.28 1.967 0.28 2.989 0 1.145-0.12 2.263-0.35 3.341-0.779 3.668-2.814 6.87-5.633 9.137l-0.001-0.001-4.565-0.233-0.646-4.033c1.871-1.097 3.333-2.814 4.103-4.869h-8.556v-6.33h15.369z"></path>
<path fill="#28b446" style="fill: var(--color3, #28b446)" d="M26.016 28.477l0.001 0.001c-2.742 2.204-6.225 3.523-10.017 3.523-6.093 0-11.391-3.406-14.093-8.418l5.185-4.244c1.351 3.606 4.83 6.173 8.908 6.173 1.753 0 3.395-0.474 4.804-1.301l5.211 4.266z"></path>
<path fill="#f14336" style="fill: var(--color4, #f14336)" d="M26.213 3.683l-5.183 4.243c-1.458-0.912-3.182-1.438-5.029-1.438-4.171 0-7.714 2.685-8.998 6.42l-5.213-4.267c2.663-5.134 8.027-8.642 14.211-8.642 3.882 0 7.442 1.383 10.213 3.683z"></path>
</symbol>
<symbol id="icon-Arrow" viewBox="0 0 32 32">
<path d="M15.609 6.276c0.521-0.521 0.521-1.365 0-1.886s-1.365-0.521-1.886 0l-10.667 10.667c-0.521 0.521-0.521 1.365 0 1.886l10.667 10.667c0.521 0.521 1.365 0.521 1.886 0s0.521-1.365 0-1.886l-8.391-8.391h20.781c0.736 0 1.333-0.597 1.333-1.333s-0.597-1.333-1.333-1.333h-20.781l8.391-8.391z"></path>
</symbol>
<symbol id="icon-Eye" viewBox="0 0 32 32">
<path fill="none"  stroke-width="2" stroke-miterlimit="4" stroke-linecap="round" stroke-linejoin="round" d="M1.333 16c0 0 5.333-10.667 14.667-10.667s14.667 10.667 14.667 10.667c0 0-5.333 10.667-14.667 10.667s-14.667-10.667-14.667-10.667z"></path>
<path fill="none"  stroke-width="2" stroke-miterlimit="4" stroke-linecap="round" stroke-linejoin="round"  d="M16 20c2.209 0 4-1.791 4-4s-1.791-4-4-4c-2.209 0-4 1.791-4 4s1.791 4 4 4z"></path>
</symbol>
<symbol id="icon-Eye-off" viewBox="0 0 32 32">
<path d="M0.626 0.626c0.391-0.391 1.024-0.391 1.414 0l11.836 11.836c0 0 0-0 0 0 0.002 0.002 0.005 0.004 0.007 0.007 0 0 0-0 0 0l5.648 5.648c0 0 0-0 0 0 0.002 0.002 0.005 0.004 0.007 0.007 0 0-0-0 0 0l11.836 11.836c0.391 0.391 0.391 1.024 0 1.414s-1.024 0.391-1.414 0l-6.148-6.148c-2.304 1.544-5.010 2.395-7.796 2.44l-0.016 0c-5.066 0-8.979-2.893-11.563-5.649-1.301-1.388-2.295-2.772-2.965-3.808-0.335-0.519-0.59-0.953-0.763-1.261-0.086-0.154-0.152-0.276-0.198-0.361-0.023-0.043-0.040-0.076-0.052-0.1l-0.014-0.028-0.006-0.011c-0-0-0.001-0.002 0.894-0.449l-0.894 0.447c-0.145-0.291-0.14-0.634 0.013-0.92 1.546-2.881 3.628-5.437 6.131-7.53l-5.957-5.957c-0.391-0.391-0.391-1.024 0-1.414zM8.003 9.417c-2.231 1.838-4.105 4.070-5.53 6.587 0.155 0.274 0.382 0.659 0.68 1.12 0.622 0.964 1.545 2.246 2.744 3.525 2.414 2.575 5.832 5.014 10.096 5.017 2.264-0.039 4.466-0.694 6.374-1.887l-3.59-3.59c-0.263 0.185-0.545 0.345-0.841 0.477-0.613 0.273-1.275 0.42-1.947 0.432s-1.338-0.112-1.961-0.363c-0.623-0.251-1.188-0.626-1.663-1.101s-0.849-1.040-1.101-1.663c-0.251-0.623-0.375-1.289-0.363-1.961s0.159-1.333 0.432-1.947c0.132-0.296 0.292-0.577 0.477-0.841l-3.807-3.807zM13.26 14.675c-0.036 0.067-0.069 0.135-0.1 0.204-0.164 0.368-0.252 0.765-0.259 1.168s0.067 0.803 0.218 1.177c0.151 0.374 0.375 0.713 0.66 0.998s0.624 0.509 0.998 0.66c0.374 0.151 0.774 0.225 1.177 0.218s0.8-0.095 1.168-0.259c0.069-0.031 0.138-0.065 0.204-0.101l-4.065-4.065zM15.998 6.333c-0.865-0.002-1.727 0.097-2.57 0.294-0.538 0.126-1.076-0.208-1.202-0.746s0.208-1.076 0.746-1.202c0.993-0.232 2.009-0.349 3.029-0.346 5.066 0 8.978 2.893 11.562 5.649 1.301 1.388 2.295 2.772 2.965 3.808 0.335 0.519 0.59 0.953 0.763 1.261 0.087 0.154 0.152 0.276 0.198 0.361 0.023 0.043 0.040 0.076 0.052 0.1l0.014 0.028 0.004 0.008 0.001 0.003c0 0 0.001 0.002-0.894 0.449l-0.882-0.471c-0.084 0.157-0.17 0.313-0.257 0.468-0.155-0.274-0.383-0.66-0.68-1.121-0.623-0.964-1.545-2.246-2.744-3.525-2.416-2.577-5.837-5.017-10.104-5.017h-0.002zM29.528 15.997c-0.721 1.279-1.56 2.489-2.506 3.613-0.356 0.423-0.301 1.053 0.121 1.409s1.053 0.301 1.409-0.121c1.15-1.367 2.155-2.85 2.997-4.426 0.153-0.286 0.158-0.629 0.013-0.919l-0.894 0.447c-0.894 0.447-0.894 0.447-0.894 0.448l-0.002-0.003-0.009-0.018c-0.009-0.017-0.022-0.043-0.041-0.079-0.038-0.071-0.095-0.178-0.173-0.316-0.007-0.011-0.013-0.023-0.020-0.035z"></path>
</symbol>
<symbol id="icon-upload-cloud" viewBox="0 0 32 32">
<path  d="M11.698 3.405c1.709-0.063 3.41 0.262 4.975 0.951s2.954 1.724 4.061 3.027c0.944 1.11 1.662 2.39 2.119 3.769h0.904c1.652 0.001 3.257 0.552 4.56 1.566s2.233 2.434 2.64 4.034c0.407 1.601 0.27 3.291-0.39 4.805s-1.806 2.765-3.256 3.556c-0.47 0.256-1.059 0.083-1.316-0.387s-0.083-1.059 0.387-1.316c1.072-0.584 1.919-1.509 2.407-2.628s0.589-2.369 0.288-3.552c-0.301-1.183-0.988-2.232-1.951-2.982s-2.149-1.157-3.37-1.158h-1.628c-0.442 0-0.828-0.299-0.939-0.727-0.355-1.372-1.016-2.645-1.933-3.725s-2.068-1.937-3.365-2.508c-1.297-0.571-2.706-0.84-4.122-0.788s-2.802 0.425-4.053 1.089c-1.251 0.665-2.336 1.605-3.171 2.749s-1.401 2.463-1.654 3.857c-0.253 1.394-0.186 2.828 0.195 4.192s1.066 2.625 2.005 3.687c0.355 0.401 0.317 1.014-0.085 1.369s-1.014 0.317-1.369-0.084c-1.132-1.281-1.96-2.803-2.419-4.45s-0.54-3.377-0.235-5.060c0.305-1.683 0.988-3.274 1.996-4.655s2.317-2.515 3.827-3.317c1.51-0.802 3.183-1.252 4.891-1.315zM16 15.030c0.257 0 0.504 0.102 0.686 0.284l5.172 5.172c0.379 0.379 0.379 0.993 0 1.371s-0.993 0.379-1.371 0l-3.516-3.516v9.295c0 0.536-0.434 0.97-0.97 0.97s-0.97-0.434-0.97-0.97v-9.295l-3.516 3.516c-0.379 0.379-0.993 0.379-1.371 0s-0.379-0.993 0-1.371l5.172-5.172c0.182-0.182 0.428-0.284 0.686-0.284z"></path>
</symbol>
<symbol id="icon-Check" viewBox="0 0 43 32">
<path  d="M41.972 0.694c0.926 0.926 0.926 2.427 0 3.352l-26.074 26.074c-0.444 0.445-1.047 0.694-1.676 0.694s-1.232-0.25-1.676-0.694l-11.852-11.852c-0.926-0.926-0.926-2.427 0-3.352s2.427-0.926 3.352 0l10.176 10.176 24.398-24.398c0.926-0.926 2.427-0.926 3.352 0z"></path>
</symbol>
<symbol id="icon-plus" viewBox="0 0 32 32">
<path d="M16 5.333c0.736 0 1.333 0.597 1.333 1.333v8h8c0.736 0 1.333 0.597 1.333 1.333s-0.597 1.333-1.333 1.333h-8v8c0 0.736-0.597 1.333-1.333 1.333s-1.333-0.597-1.333-1.333v-8h-8c-0.736 0-1.333-0.597-1.333-1.333s0.597-1.333 1.333-1.333h8v-8c0-0.736 0.597-1.333 1.333-1.333z"></path>
</symbol>
<symbol id="icon-arrow-right" viewBox="0 0 34 32">
<path  d="M16.057 5.724c0.521-0.521 1.365-0.521 1.886 0l9.333 9.333c0.25 0.25 0.39 0.589 0.39 0.943s-0.14 0.693-0.39 0.943l-9.333 9.333c-0.521 0.521-1.365 0.521-1.886 0s-0.521-1.365 0-1.886l7.057-7.057h-15.448c-0.736 0-1.333-0.597-1.333-1.333s0.597-1.333 1.333-1.333h15.448l-7.057-7.057c-0.521-0.521-0.521-1.365 0-1.886z"></path>
</symbol>
<symbol id="icon-search" viewBox="0 0 32 32">
<path d="M14.667 5c5.339 0 9.667 4.328 9.667 9.667 0 2.614-1.038 4.986-2.724 6.726-0.041 0.030-0.080 0.063-0.117 0.1s-0.070 0.076-0.1 0.117c-1.74 1.686-4.112 2.724-6.726 2.724-5.339 0-9.667-4.328-9.667-9.667s4.328-9.667 9.667-9.667zM23.593 22.179c1.71-2.030 2.74-4.651 2.74-7.512 0-6.443-5.223-11.667-11.667-11.667s-11.667 5.223-11.667 11.667c0 6.443 5.223 11.667 11.667 11.667 2.862 0 5.483-1.030 7.512-2.74l5.114 5.114c0.391 0.39 1.024 0.39 1.414 0s0.39-1.024 0-1.414l-5.114-5.114z"></path>
</symbol>
<symbol id="icon-home" viewBox="0 0 30 32">
<path d="M14.339 2.413c0.455-0.354 1.091-0.354 1.546 0l11.333 8.815c0.307 0.239 0.486 0.605 0.486 0.994v13.852c0 1.002-0.398 1.963-1.107 2.671s-1.669 1.107-2.671 1.107h-17.63c-1.002 0-1.963-0.398-2.671-1.107s-1.107-1.669-1.107-2.671v-13.852c0-0.389 0.179-0.755 0.486-0.994l11.333-8.815zM5.038 12.838v13.236c0 0.334 0.133 0.654 0.369 0.89s0.556 0.369 0.89 0.369h3.778v-11.333c0-0.695 0.564-1.259 1.259-1.259h7.555c0.695 0 1.259 0.564 1.259 1.259v11.333h3.778c0.334 0 0.654-0.133 0.89-0.369s0.369-0.556 0.369-0.89v-13.236l-10.074-7.835-10.074 7.835zM17.63 27.333v-10.074h-5.037v10.074h5.037z"></path>
</symbol>
<symbol id="icon-buy" viewBox="0 0 32 32">
<path  d="M14.003 1.871c0.607-0.35 1.296-0.534 1.997-0.534s1.39 0.184 1.997 0.534c0.001 0.001 0.002 0.001 0.003 0.002l9.333 5.333c0.607 0.351 1.112 0.855 1.463 1.462s0.536 1.296 0.537 1.998v10.669c-0.001 0.702-0.186 1.39-0.537 1.998s-0.856 1.112-1.463 1.462l-0.005 0.003-9.328 5.33c-0.001 0-0.002 0.001-0.002 0.001-0.608 0.35-1.296 0.535-1.998 0.535s-1.39-0.184-1.998-0.535c-0.001-0-0.002-0.001-0.002-0.001l-9.333-5.333c-0.607-0.351-1.112-0.855-1.463-1.462s-0.536-1.296-0.537-1.998v-10.669c0.001-0.701 0.186-1.39 0.537-1.998s0.856-1.112 1.463-1.462l0.005-0.003 9.331-5.332zM16.001 4.003c-0.234 0-0.464 0.062-0.667 0.179l-0.005 0.003-9.328 5.33c-0.001 0-0.001 0.001-0.002 0.001-0.202 0.117-0.369 0.284-0.486 0.486s-0.179 0.432-0.179 0.665v10.665c0 0.234 0.062 0.463 0.179 0.665s0.284 0.369 0.486 0.486c0.001 0.001 0.001 0.001 0.002 0.001l9.333 5.333c0.203 0.117 0.433 0.179 0.667 0.179s0.464-0.062 0.667-0.179l0.005-0.003 9.328-5.33c0.001-0 0.002-0.001 0.002-0.001 0.202-0.117 0.369-0.284 0.486-0.486s0.179-0.432 0.179-0.666v-10.664c-0-0.234-0.062-0.463-0.179-0.666s-0.284-0.369-0.486-0.486c-0.001-0-0.001-0.001-0.002-0.001l-9.333-5.333c-0.203-0.117-0.433-0.179-0.667-0.179z"></path>
</symbol>
<symbol id="icon-sell" viewBox="0 0 32 32">
<path d="M6.624 8.509c-1.642 2.053-2.624 4.657-2.624 7.49s0.982 5.437 2.624 7.49l3.814-3.814c-0.698-1.054-1.105-2.318-1.105-3.677s0.407-2.623 1.105-3.677l-3.814-3.814zM12.323 21.562l-3.814 3.814c2.053 1.642 4.657 2.624 7.49 2.624s5.437-0.982 7.49-2.624l-3.814-3.814c-1.054 0.698-2.318 1.104-3.676 1.104s-2.623-0.406-3.676-1.104zM27.999 15.999c0-2.833-0.982-5.437-2.624-7.49l-3.814 3.814c0.698 1.054 1.105 2.318 1.105 3.677s-0.406 2.623-1.105 3.677l3.814 3.814c1.642-2.053 2.624-4.657 2.624-7.49zM23.489 6.623c-2.053-1.642-4.657-2.624-7.49-2.624s-5.437 0.982-7.49 2.624l3.814 3.814c1.054-0.698 2.318-1.104 3.676-1.104s2.623 0.406 3.676 1.104l3.814-3.814zM1.333 15.999c0-8.1 6.566-14.667 14.667-14.667s14.667 6.566 14.667 14.667c0 8.1-6.566 14.667-14.667 14.667s-14.667-6.566-14.667-14.667zM15.999 11.999c-2.209 0-4 1.791-4 4s1.791 4 4 4c2.209 0 4-1.791 4-4s-1.791-4-4-4z"></path>
</symbol>
<symbol id="icon-triangle-top" viewBox="0 0 43 32">
<path d="M21.333 0l18.475 32h-36.95l18.475-32z"></path>
</symbol>
<symbol id="icon-triangle-bottom" viewBox="0 0 43 32">
<path d="M21.333 32l-18.475-32h36.95l-18.475 32z"></path>
</symbol>
<symbol id="icon-Minus-Icon" viewBox="0 0 33 32">
<path  d="M8.523 17.333c-0.378 0-0.695-0.128-0.951-0.384s-0.383-0.572-0.383-0.949 0.128-0.695 0.383-0.951c0.256-0.255 0.573-0.383 0.951-0.383h16c0.378 0 0.694 0.128 0.949 0.383s0.384 0.573 0.384 0.951-0.128 0.694-0.384 0.949c-0.255 0.256-0.572 0.384-0.949 0.384h-16z"></path>
</symbol>
<symbol id="icon-Plus-Icon" viewBox="0 0 33 32">
<path  d="M16.523 25.333c-0.378 0-0.694-0.128-0.949-0.384s-0.384-0.572-0.384-0.949v-6.667h-6.667c-0.378 0-0.695-0.128-0.951-0.384s-0.383-0.572-0.383-0.949 0.128-0.695 0.383-0.951c0.256-0.255 0.573-0.383 0.951-0.383h6.667v-6.667c0-0.378 0.128-0.695 0.384-0.951s0.571-0.383 0.949-0.383c0.378 0 0.695 0.128 0.951 0.383s0.383 0.573 0.383 0.951v6.667h6.667c0.378 0 0.694 0.128 0.949 0.383s0.384 0.573 0.384 0.951-0.128 0.694-0.384 0.949c-0.255 0.256-0.572 0.384-0.949 0.384h-6.667v6.667c0 0.378-0.128 0.694-0.383 0.949s-0.573 0.384-0.951 0.384z"></path>
</symbol>
<symbol id="icon-Repeat" viewBox="0 0 32 32">
<path d="M21.724 0.391c0.521-0.521 1.365-0.521 1.886 0l5.333 5.333c0.25 0.25 0.391 0.589 0.391 0.943s-0.14 0.693-0.391 0.943l-5.333 5.333c-0.521 0.521-1.365 0.521-1.886 0s-0.521-1.365 0-1.886l3.057-3.057-15.448 0c-1.061 0-2.078 0.421-2.828 1.172s-1.172 1.768-1.172 2.828v2.667c0 0.736-0.597 1.333-1.333 1.333s-1.333-0.597-1.333-1.333v-2.667c0-1.768 0.702-3.464 1.953-4.714s2.946-1.953 4.714-1.953l15.448-0-3.057-3.057c-0.521-0.521-0.521-1.365 0-1.886zM28 16c0.736 0 1.333 0.597 1.333 1.333v2.667c0 1.768-0.702 3.464-1.953 4.714s-2.946 1.953-4.714 1.953h-15.448l3.057 3.057c0.521 0.521 0.521 1.365 0 1.886s-1.365 0.521-1.886 0l-5.333-5.333c-0.521-0.521-0.521-1.365 0-1.886l5.333-5.333c0.521-0.521 1.365-0.521 1.886 0s0.521 1.365 0 1.886l-3.057 3.057h15.448c1.061 0 2.078-0.421 2.828-1.172s1.172-1.768 1.172-2.828v-2.667c0-0.736 0.597-1.333 1.333-1.333z"></path>
</symbol>
<symbol id="icon-calendar" viewBox="0 0 32 32">
<path d="M10.667 1.667c0.552 0 1 0.448 1 1v1.667h8.667v-1.667c0-0.552 0.448-1 1-1s1 0.448 1 1v1.667h3c2.025 0 3.667 1.642 3.667 3.667v18.667c0 2.025-1.642 3.667-3.667 3.667h-18.667c-2.025 0-3.667-1.642-3.667-3.667v-18.667c0-2.025 1.642-3.667 3.667-3.667h3v-1.667c0-0.552 0.448-1 1-1zM9.667 6.333h-3c-0.92 0-1.667 0.746-1.667 1.667v4.333h22v-4.333c0-0.92-0.746-1.667-1.667-1.667h-3v1.667c0 0.552-0.448 1-1 1s-1-0.448-1-1v-1.667h-8.667v1.667c0 0.552-0.448 1-1 1s-1-0.448-1-1v-1.667zM27 14.333h-22v12.333c0 0.921 0.746 1.667 1.667 1.667h18.667c0.92 0 1.667-0.746 1.667-1.667v-12.333z"></path>
</symbol>
<symbol id="icon-Forest-ERB" viewBox="0 0 32 32">
<path fill="#27e8a2" style="fill: var(--color1, #27e8a2)" d="M32 16c0 8.837-7.163 16-16 16s-16-7.163-16-16c0-8.837 7.163-16 16-16s16 7.163 16 16z"></path>
<path fill="#fff" style="fill: var(--color2, #fff)" d="M10.717 10.292c-0.396 0-0.717-0.325-0.717-0.725s0.321-0.725 0.717-0.725c2.242 0 4.066-1.846 4.066-4.116 0-0.4 0.321-0.725 0.717-0.725s0.717 0.325 0.717 0.725c0 2.27 1.825 4.116 4.067 4.116 0.396 0 0.717 0.325 0.717 0.725s-0.321 0.725-0.717 0.725c-1.612 0-3.060-0.71-4.067-1.832v2.433c0 2.27 1.825 4.117 4.067 4.117 0.396 0 0.717 0.325 0.717 0.725s-0.321 0.725-0.717 0.725c-1.612 0-3.060-0.71-4.067-1.832v2.433c0 2.27 1.825 4.116 4.067 4.116 0.396 0 0.717 0.325 0.717 0.725s-0.321 0.725-0.717 0.725c-1.612 0-3.060-0.71-4.067-1.832v6.479c0 0.401-0.321 0.725-0.717 0.725s-0.717-0.325-0.717-0.725v-6.478c-1.007 1.122-2.454 1.832-4.066 1.832-0.396 0-0.717-0.325-0.717-0.725s0.321-0.725 0.717-0.725c2.242 0 4.066-1.847 4.066-4.117v-2.433c-1.007 1.122-2.454 1.832-4.066 1.832-0.396 0-0.717-0.325-0.717-0.725s0.321-0.725 0.717-0.725c2.242 0 4.066-1.847 4.066-4.117v-2.433c-1.007 1.122-2.454 1.832-4.066 1.832v-0z"></path>
</symbol>
<symbol id="icon-Mine-Methane-Capture-ARB" viewBox="0 0 32 32">
<path fill="#b2a6fe" style="fill: var(--color1, #b2a6fe)" d="M32 16c0 8.837-7.163 16-16 16s-16-7.163-16-16c0-8.837 7.163-16 16-16s16 7.163 16 16z"></path>
<path fill="#fff" style="fill: var(--color2, #fff)" d="M5 13.451v2.221c0 0.277 0.25 0.505 0.555 0.505h1.72l1.137 5.451c0.055 0.227 0.277 0.404 0.555 0.404h0.638c0.25 1.11 1.359 1.968 2.635 1.968s2.386-0.833 2.635-1.968h1.248c0.25 1.11 1.359 1.968 2.635 1.968s2.386-0.833 2.635-1.968h1.137c0.277 0 0.499-0.177 0.555-0.404l1.137-5.451h1.221c0.305 0 0.555-0.227 0.555-0.505v-2.221c0-0.278-0.25-0.505-0.555-0.505h-2.303l-0.61-2.095c-0.055-0.227-0.277-0.379-0.527-0.379h-3.024l-0.61-2.095c-0.055-0.227-0.277-0.379-0.527-0.379l-4.633 0c-0.25 0-0.472 0.151-0.527 0.379l-0.61 2.095-3.052-0c-0.25 0-0.472 0.151-0.527 0.379l-0.61 2.095h-2.303c-0.333 0-0.583 0.227-0.583 0.505h0zM12.241 22.965c-0.888 0-1.609-0.656-1.609-1.464s0.721-1.464 1.609-1.464c0.888 0 1.581 0.656 1.581 1.438 0.028 0.858-0.694 1.489-1.581 1.489v0zM18.787 22.965c-0.888 0-1.609-0.656-1.609-1.464s0.721-1.464 1.609-1.464c0.888 0 1.609 0.656 1.609 1.464s-0.721 1.464-1.609 1.464zM22.005 12.946h-4.633l0.416-1.464h3.8l0.416 1.464zM14.793 12.946l-0.416-1.464h2.275l-0.416 1.464h-1.442zM13.627 9.035h3.773l0.416 1.464h-4.605l0.416-1.464zM9.439 11.483h3.773l0.416 1.464h-4.605l0.416-1.464zM6.11 13.956h18.808v1.211h-1.137c-0.277 0-0.499 0.177-0.555 0.404l-1.137 5.451h-0.666c-0.25-1.11-1.359-1.968-2.635-1.968s-2.386 0.833-2.635 1.968h-1.248c-0.25-1.11-1.359-1.968-2.635-1.968s-2.386 0.833-2.635 1.968h-0.166l-1.137-5.451c-0.055-0.227-0.277-0.404-0.555-0.404h-1.637l-0-1.211h-0.028z"></path>
</symbol>
<symbol id="icon-Ozone-Delpleting-Substances-ARB" viewBox="0 0 32 32">
<path fill="#4eace1" style="fill: var(--color3, #4eace1)" d="M32 16c0 8.837-7.163 16-16 16s-16-7.163-16-16c0-8.837 7.163-16 16-16s16 7.163 16 16z"></path>
<path fill="#fff" style="fill: var(--color2, #fff)" d="M23.8 22.137c0.971-1.379 1.559-2.992 1.702-4.673s-0.163-3.37-0.887-4.893c-0.012-0.034-0.027-0.065-0.046-0.095-0.785-1.604-2.003-2.957-3.518-3.903s-3.264-1.449-5.050-1.45c-5.257 0-9.535 4.277-9.535 9.534 0.001 1.648 0.429 3.268 1.242 4.701s1.984 2.632 3.398 3.478c0.022 0.017 0.046 0.032 0.070 0.045l0.055 0.029c0.235 0.136 0.477 0.262 0.724 0.379l0.045 0.024c0.020 0.010 0.041 0.019 0.062 0.026 1.973 0.896 4.193 1.092 6.292 0.557s3.954-1.771 5.257-3.503c0.090-0.061 0.156-0.152 0.187-0.257l0 0zM23.745 20.395c0-0.006-0.004-0.011-0.007-0.017l-0.003-0.005-1.326-2.648v-1.217c0-0.274-0.137-0.531-0.365-0.683l-1.058-0.706c-0.193-0.128-0.431-0.169-0.656-0.114l-1.143 0.285-1.79-0.767-0.229-1.606 0.527-0.527h1.335l0.461 0.693c0.127 0.188 0.325 0.316 0.548 0.354l2.115 0.353c0.132 0.022 0.268 0.012 0.395-0.031l1.368-0.456c0.477 1.126 0.709 2.341 0.678 3.564s-0.321 2.425-0.853 3.526l0.001-0zM18.766 9.57c0.212 0 0.338-0.11 0.642-0.386 0.041-0.037 0.097-0.086 0.122-0.107 0.070-0.047 0.125-0.111 0.161-0.187 0.681 0.325 1.316 0.738 1.889 1.228l-0.006 0.003-0.522 0.415-1.015-0.716c-0.037-0.026-0.077-0.047-0.12-0.061-0.18-0.061-0.716-0.040-0.831-0.010-0.023 0.006-0.045 0.014-0.067 0.023l-1.183 0.5-0.407-0.091 0.397-0.612 0.939 0.002zM12.187 8.954c0.034 0.050 0.078 0.093 0.128 0.127 0.096 0.065 0.206 0.107 0.32 0.126l0.736 0.123-0.155 0.052c-0.186 0.062-0.343 0.189-0.445 0.356l-0.953 1.588-1.485 0.891-1.123 0.388c-0.184 0.040-0.349 0.141-0.467 0.287s-0.184 0.328-0.185 0.516v1.058c-0 0.041 0.003 0.083 0.009 0.123l-0.342 0.305c-0.039 0.034-0.071 0.075-0.096 0.12l-0.496-0.331c0.293-1.23 0.853-2.382 1.64-3.372s1.782-1.795 2.915-2.358l-0-0zM10.817 19.231l-1.37-0.275-0.441-0.878v-0.524l0.716-0.716 0.196 0.391c0.067 0.137 0.172 0.253 0.302 0.334s0.28 0.124 0.433 0.124h2.004l0.819 1.365c0.149 0.246 0.416 0.397 0.704 0.398h0.409l-0.11 0.538-1.232 1.232c-0.155 0.154-0.242 0.363-0.241 0.581v0.648l-1.081 0.811c-0.16 0.121-0.271 0.296-0.311 0.492l-0.138-0.345v-3.369c-0.001-0.189-0.067-0.372-0.187-0.519s-0.286-0.247-0.471-0.286v-0zM16.002 25.255c-1.155 0.001-2.298-0.231-3.361-0.684l-0.095-0.606 1.212-0.908c0.118-0.088 0.187-0.227 0.187-0.375v-0.836l1.302-1.302c0.066-0.065 0.11-0.149 0.128-0.24l0.247-1.237c0.026-0.137-0.010-0.28-0.099-0.387s-0.222-0.17-0.362-0.17h-0.915l-0.922-1.539c-0.085-0.141-0.237-0.227-0.402-0.228h-2.198l-0.452-0.909c-0.067-0.135-0.195-0.229-0.344-0.253s-0.3 0.024-0.406 0.131l-1.314 1.315c-0.088 0.088-0.137 0.206-0.137 0.331v0.829c0 0.073 0.017 0.145 0.050 0.21l0.593 1.182c0.064 0.129 0.185 0.221 0.327 0.25l1.5 0.3v3.16c-1.107-0.909-1.968-2.080-2.506-3.407s-0.736-2.767-0.575-4.19l0.819 0.546c0.094 0.063 0.209 0.090 0.321 0.075s0.216-0.070 0.291-0.155c0.075-0.085 0.116-0.195 0.116-0.309v-0.396l0.436-0.389c0.090-0.079 0.146-0.191 0.156-0.31s-0.026-0.239-0.101-0.332v-0.923l1.192-0.412c0.030-0.011 0.060-0.025 0.088-0.041l1.626-0.979c0.066-0.040 0.121-0.095 0.16-0.161l0.992-1.653 0.851-0.28c0.14-0.046 0.249-0.156 0.296-0.296l0.165-0.499c0.043-0.13 0.028-0.272-0.043-0.39s-0.189-0.198-0.324-0.221l-0.933-0.155c1.699-0.502 3.512-0.467 5.191 0.1-0.042 0.037-0.094 0.083-0.138 0.121h-1.047c-0.159-0-0.307 0.080-0.393 0.213l-0.901 1.389c-0.083 0.129-0.099 0.29-0.041 0.432s0.181 0.247 0.331 0.281l1.212 0.275c0.095 0.022 0.195 0.013 0.285-0.025l1.259-0.532c0.070-0.003 0.192-0.005 0.278-0.003l1.199 0.847c0.083 0.059 0.182 0.089 0.284 0.086s0.199-0.039 0.278-0.102l0.797-0.633c0.036-0.028 0.067-0.062 0.093-0.099 0.485 0.513 0.905 1.083 1.251 1.698l-1.221 0.403-2.038-0.339-0.571-0.859c-0.087-0.131-0.233-0.209-0.39-0.209h-1.782c-0.124 0-0.243 0.050-0.331 0.137l-0.83 0.83c-0.104 0.104-0.153 0.252-0.132 0.398l0.299 2.098c0.023 0.162 0.129 0.3 0.279 0.364l2.177 0.934c0.094 0.041 0.199 0.049 0.298 0.024l1.247-0.311 0.963 0.642v1.267c0 0.073 0.017 0.144 0.050 0.209l1.361 2.719v1.043c-0.8 1.070-1.838 1.939-3.033 2.537s-2.512 0.91-3.848 0.91l0 0z"></path>
<path fill="#fff" style="fill: var(--color2, #fff)" d="M9.72 25.47c-0.122-0.084-0.243-0.171-0.361-0.261-0.134-0.095-0.308-0.112-0.458-0.046s-0.255 0.206-0.277 0.368c-0.021 0.163 0.044 0.325 0.172 0.427 0.128 0.096 0.26 0.192 0.392 0.283 0.138 0.095 0.316 0.11 0.467 0.038s0.253-0.219 0.266-0.386c0.014-0.167-0.063-0.328-0.201-0.423v0z"></path>
<path fill="#fff" style="fill: var(--color2, #fff)" d="M7.436 23.363c-0.106-0.129-0.273-0.193-0.438-0.166s-0.303 0.14-0.362 0.297-0.030 0.333 0.076 0.462c0.102 0.124 0.207 0.248 0.313 0.367 0.111 0.125 0.281 0.182 0.444 0.148s0.298-0.152 0.35-0.311c0.053-0.159 0.017-0.334-0.094-0.459-0.098-0.11-0.195-0.224-0.289-0.339l0-0z"></path>
<path fill="#fff" style="fill: var(--color2, #fff)" d="M7.337 8.059c-0.11 0.115-0.22 0.235-0.327 0.355-0.111 0.125-0.147 0.3-0.094 0.459s0.187 0.277 0.351 0.311c0.164 0.033 0.334-0.023 0.445-0.149 0.099-0.11 0.2-0.22 0.302-0.328 0.116-0.121 0.158-0.294 0.112-0.455s-0.176-0.284-0.338-0.324c-0.163-0.040-0.334 0.010-0.45 0.131v-0.001z"></path>
<path fill="#fff" style="fill: var(--color2, #fff)" d="M12.084 26.71c-0.138-0.052-0.275-0.11-0.414-0.165-0.153-0.063-0.329-0.041-0.462 0.060s-0.202 0.263-0.182 0.428c0.019 0.165 0.125 0.307 0.277 0.374 0.148 0.063 0.299 0.124 0.45 0.181 0.053 0.020 0.109 0.031 0.165 0.031 0.147-0.001 0.285-0.070 0.373-0.188s0.116-0.27 0.075-0.411c-0.041-0.141-0.146-0.255-0.283-0.308l0.001-0.001z"></path>
<path fill="#fff" style="fill: var(--color2, #fff)" d="M9.573 6.226c-0.135 0.086-0.271 0.176-0.402 0.267-0.138 0.095-0.214 0.257-0.2 0.424s0.116 0.314 0.267 0.386c0.152 0.072 0.33 0.057 0.468-0.039 0.121-0.084 0.246-0.165 0.37-0.246 0.142-0.090 0.224-0.248 0.217-0.416s-0.103-0.318-0.251-0.396-0.327-0.070-0.469 0.019v0z"></path>
<path fill="#fff" style="fill: var(--color2, #fff)" d="M12.183 4.981c-0.153 0.051-0.305 0.106-0.455 0.165-0.156 0.060-0.269 0.198-0.296 0.363s0.037 0.332 0.167 0.438 0.306 0.134 0.463 0.074c0.138-0.055 0.279-0.103 0.419-0.15 0.159-0.053 0.278-0.187 0.311-0.352s-0.023-0.334-0.149-0.445-0.301-0.147-0.46-0.093v0z"></path>
<path fill="#fff" style="fill: var(--color2, #fff)" d="M6.24 10.2c-0.108-0.062-0.236-0.079-0.356-0.046s-0.222 0.111-0.284 0.218c-0.080 0.139-0.159 0.282-0.233 0.424-0.058 0.11-0.069 0.238-0.032 0.357s0.12 0.218 0.23 0.275c0.067 0.036 0.141 0.055 0.217 0.055 0.085-0 0.169-0.024 0.242-0.069s0.132-0.108 0.172-0.184c0.069-0.131 0.141-0.262 0.215-0.391 0.062-0.107 0.079-0.235 0.047-0.355s-0.11-0.223-0.218-0.285v0z"></path>
<path fill="#fff" style="fill: var(--color2, #fff)" d="M4.687 14.069c0.036 0.008 0.073 0.013 0.11 0.013 0.105 0 0.207-0.035 0.289-0.1s0.141-0.155 0.165-0.257c0.035-0.143 0.074-0.288 0.115-0.43 0.046-0.161 0.003-0.334-0.113-0.454s-0.288-0.17-0.45-0.129c-0.162 0.040-0.291 0.164-0.337 0.325-0.045 0.154-0.087 0.311-0.125 0.467-0.029 0.121-0.009 0.248 0.055 0.355s0.169 0.182 0.29 0.212h-0z"></path>
<path fill="#fff" style="fill: var(--color2, #fff)" d="M25.989 11.598c0.072 0.151 0.219 0.252 0.386 0.265s0.328-0.064 0.422-0.202c0.095-0.138 0.109-0.316 0.037-0.467-0.069-0.145-0.142-0.29-0.216-0.431-0.083-0.138-0.232-0.223-0.392-0.226s-0.312 0.077-0.4 0.212-0.101 0.305-0.034 0.451c0.067 0.13 0.134 0.264 0.198 0.397v0z"></path>
<path fill="#fff" style="fill: var(--color2, #fff)" d="M26.739 13.689c0.036 0.144 0.069 0.29 0.099 0.435 0.022 0.106 0.079 0.2 0.163 0.269s0.188 0.105 0.296 0.105c0.032 0 0.063-0.003 0.094-0.009 0.121-0.025 0.228-0.097 0.296-0.2s0.093-0.229 0.069-0.351c-0.032-0.157-0.068-0.316-0.107-0.472-0.040-0.162-0.164-0.291-0.325-0.338s-0.334-0.003-0.455 0.113c-0.121 0.116-0.17 0.288-0.13 0.45v-0.002z"></path>
<path fill="#fff" style="fill: var(--color2, #fff)" d="M5.258 19.020c-0.035-0.144-0.068-0.29-0.098-0.434-0.033-0.164-0.152-0.298-0.311-0.351s-0.334-0.017-0.459 0.094c-0.125 0.111-0.182 0.28-0.148 0.444 0.032 0.157 0.068 0.316 0.106 0.472 0.040 0.163 0.164 0.291 0.325 0.338s0.334 0.004 0.455-0.112c0.121-0.116 0.17-0.288 0.13-0.45v0z"></path>
<path fill="#fff" style="fill: var(--color2, #fff)" d="M6.008 21.113c-0.075-0.145-0.221-0.241-0.384-0.252s-0.321 0.064-0.415 0.198c-0.094 0.134-0.112 0.307-0.047 0.458 0.069 0.145 0.142 0.29 0.216 0.431 0.056 0.114 0.155 0.201 0.276 0.24s0.252 0.028 0.364-0.031c0.112-0.059 0.196-0.161 0.231-0.283s0.020-0.253-0.042-0.363c-0.068-0.13-0.136-0.264-0.199-0.397l-0-0z"></path>
<path fill="#fff" style="fill: var(--color2, #fff)" d="M4.938 16.373v-0.010c0-0.144 0.003-0.29 0.008-0.434 0.006-0.167-0.077-0.325-0.219-0.415s-0.32-0.096-0.468-0.018c-0.148 0.078-0.243 0.229-0.25 0.397-0.006 0.156-0.009 0.314-0.009 0.47v0.012c-0.006 0.128 0.040 0.253 0.129 0.346s0.211 0.145 0.339 0.145 0.251-0.052 0.339-0.145c0.088-0.093 0.135-0.218 0.129-0.346l0.001-0.002z"></path>
<path fill="#fff" style="fill: var(--color2, #fff)" d="M15.018 4.4c-0.16 0.013-0.322 0.030-0.481 0.049-0.167 0.010-0.317 0.108-0.392 0.258s-0.065 0.328 0.027 0.468c0.092 0.14 0.252 0.22 0.419 0.21 0.018-0 0.037-0.002 0.055-0.004 0.146-0.018 0.295-0.033 0.441-0.045 0.167-0.013 0.315-0.115 0.387-0.267s0.058-0.33-0.038-0.468c-0.095-0.138-0.257-0.215-0.424-0.201l0.005-0.001z"></path>
<path fill="#fff" style="fill: var(--color2, #fff)" d="M24.969 8.387c-0.112-0.123-0.28-0.178-0.443-0.144s-0.295 0.152-0.348 0.31c-0.053 0.158-0.018 0.332 0.092 0.457 0.098 0.11 0.195 0.224 0.289 0.339 0.108 0.123 0.273 0.181 0.434 0.152s0.296-0.139 0.355-0.291 0.035-0.325-0.065-0.455c-0.102-0.124-0.208-0.247-0.314-0.367v-0z"></path>
<path fill="#fff" style="fill: var(--color2, #fff)" d="M23.194 6.755c-0.128-0.096-0.261-0.191-0.392-0.282-0.102-0.077-0.231-0.109-0.357-0.089s-0.239 0.091-0.311 0.197c-0.073 0.105-0.099 0.236-0.073 0.361s0.102 0.234 0.21 0.302c0.121 0.084 0.243 0.171 0.362 0.26 0.134 0.1 0.311 0.122 0.465 0.056s0.261-0.209 0.281-0.375c0.020-0.166-0.050-0.33-0.184-0.431l0 0.001z"></path>
<path fill="#fff" style="fill: var(--color2, #fff)" d="M24.944 23.654c-0.093-0.082-0.215-0.124-0.339-0.117s-0.24 0.064-0.322 0.157c-0.098 0.11-0.199 0.22-0.302 0.327-0.116 0.121-0.159 0.294-0.112 0.455s0.175 0.284 0.338 0.325c0.163 0.040 0.334-0.010 0.45-0.131 0.11-0.116 0.22-0.235 0.327-0.355 0.082-0.093 0.125-0.215 0.117-0.339s-0.064-0.24-0.157-0.323v0z"></path>
<path fill="#fff" style="fill: var(--color2, #fff)" d="M26.43 21.303c-0.11-0.058-0.238-0.069-0.357-0.032s-0.218 0.119-0.276 0.229c-0.069 0.132-0.142 0.263-0.215 0.391-0.062 0.108-0.079 0.235-0.047 0.355s0.11 0.223 0.218 0.285c0.108 0.062 0.235 0.079 0.355 0.047s0.223-0.11 0.285-0.218c0.080-0.139 0.159-0.282 0.234-0.424 0.058-0.11 0.070-0.238 0.033-0.357s-0.12-0.218-0.23-0.276h0z"></path>
<path fill="#fff" style="fill: var(--color2, #fff)" d="M27.531 15.868c-0.124 0-0.243 0.050-0.331 0.137s-0.137 0.207-0.137 0.331v0.027c0 0.148-0.003 0.298-0.009 0.445-0.005 0.124 0.039 0.245 0.124 0.337s0.202 0.145 0.326 0.15h0.019c0.121-0 0.237-0.047 0.325-0.131s0.139-0.198 0.143-0.319c0.007-0.159 0.010-0.322 0.010-0.483v-0.025c0-0.125-0.049-0.244-0.137-0.332s-0.207-0.138-0.332-0.138v0z"></path>
<path fill="#fff" style="fill: var(--color2, #fff)" d="M27.313 18.665c-0.121-0.030-0.248-0.011-0.355 0.054s-0.183 0.168-0.213 0.289c-0.035 0.143-0.074 0.288-0.115 0.43-0.035 0.119-0.020 0.248 0.040 0.356s0.161 0.189 0.28 0.224c0.042 0.012 0.086 0.019 0.13 0.019 0.102-0 0.2-0.034 0.282-0.095s0.14-0.147 0.169-0.244c0.045-0.154 0.087-0.311 0.125-0.467 0.029-0.12 0.010-0.248-0.054-0.354s-0.168-0.183-0.288-0.212v0z"></path>
<path fill="#fff" style="fill: var(--color2, #fff)" d="M17.341 27.342c-0.147 0.018-0.296 0.032-0.444 0.045-0.167 0.007-0.318 0.102-0.396 0.25s-0.071 0.327 0.018 0.468 0.247 0.225 0.415 0.218h0.038c0.16-0.013 0.321-0.029 0.48-0.049 0.125-0.013 0.239-0.075 0.317-0.173s0.114-0.223 0.099-0.348c-0.015-0.125-0.079-0.238-0.178-0.315s-0.225-0.111-0.349-0.094l-0.002-0.003z"></path>
<path fill="#fff" style="fill: var(--color2, #fff)" d="M17.907 4.511c-0.158-0.025-0.319-0.047-0.479-0.066-0.124-0.017-0.25 0.017-0.349 0.094s-0.163 0.19-0.178 0.315c-0.015 0.125 0.021 0.25 0.099 0.348s0.193 0.16 0.317 0.173c0.147 0.018 0.296 0.039 0.441 0.062 0.025 0.004 0.050 0.006 0.075 0.006 0.158-0.001 0.306-0.081 0.392-0.214s0.099-0.3 0.035-0.445c-0.064-0.145-0.197-0.247-0.353-0.273h-0z"></path>
<path fill="#fff" style="fill: var(--color2, #fff)" d="M14.673 27.345c-0.148-0.018-0.296-0.038-0.441-0.062-0.124-0.023-0.252 0.005-0.355 0.078s-0.172 0.184-0.193 0.309c-0.020 0.125 0.011 0.252 0.086 0.353s0.188 0.168 0.313 0.186c0.158 0.025 0.319 0.047 0.479 0.067 0.018 0.002 0.037 0.003 0.055 0.003 0.16-0.002 0.308-0.084 0.393-0.22s0.095-0.305 0.026-0.449c-0.068-0.145-0.205-0.244-0.364-0.265h0.001z"></path>
<path fill="#fff" style="fill: var(--color2, #fff)" d="M20.687 5.31c-0.148-0.063-0.3-0.124-0.45-0.18-0.157-0.059-0.333-0.030-0.462 0.076s-0.192 0.273-0.165 0.438c0.027 0.165 0.14 0.303 0.297 0.362 0.138 0.055 0.276 0.11 0.414 0.165 0.058 0.025 0.12 0.038 0.183 0.037 0.145 0 0.282-0.067 0.371-0.182s0.119-0.265 0.082-0.405c-0.037-0.14-0.137-0.256-0.271-0.312v0.001z"></path>
<path fill="#fff" style="fill: var(--color2, #fff)" d="M22.287 25.464c-0.122 0.084-0.246 0.165-0.37 0.246-0.141 0.090-0.224 0.248-0.217 0.415s0.102 0.318 0.251 0.396c0.148 0.078 0.327 0.070 0.468-0.019 0.135-0.085 0.27-0.175 0.402-0.267 0.138-0.095 0.214-0.257 0.201-0.424s-0.115-0.314-0.267-0.386c-0.151-0.072-0.329-0.057-0.467 0.038v0.001z"></path>
<path fill="#fff" style="fill: var(--color2, #fff)" d="M19.929 26.706c-0.138 0.052-0.279 0.103-0.42 0.15-0.159 0.053-0.277 0.187-0.31 0.351s0.023 0.333 0.149 0.444c0.125 0.111 0.3 0.146 0.459 0.093 0.153-0.051 0.306-0.106 0.455-0.163 0.152-0.062 0.261-0.199 0.286-0.362s-0.037-0.326-0.163-0.432-0.299-0.137-0.454-0.082h-0.002z"></path>
</symbol>
<symbol id="icon-Livestock-ERB" viewBox="0 0 32 32">
<path fill="#fb9e49" style="fill: var(--color4, #fb9e49)" d="M32 16c0 8.837-7.163 16-16 16s-16-7.163-16-16c0-8.837 7.163-16 16-16s16 7.163 16 16z"></path>
<path fill="#fff" style="fill: var(--color2, #fff)" d="M7.53 9.382h6.088v-1.853c0-0.292 0.237-0.529 0.529-0.529h3.706c0.292 0 0.529 0.237 0.529 0.529v1.853h6.088c0.292 0 0.529 0.237 0.529 0.529 0 1.754-1.422 3.177-3.177 3.177h-0.529v8.735c0 1.754-1.422 3.177-3.177 3.177h-4.235c-1.754 0-3.176-1.422-3.176-3.177v-8.735h-0.529c-1.754 0-3.176-1.422-3.176-3.177 0-0.292 0.237-0.529 0.529-0.529h0zM20.235 19.456v-9.015h-1.853v2.382c0 0.292-0.237 0.529-0.529 0.529h-3.706c-0.292 0-0.529-0.237-0.529-0.529v-2.382h-1.853v9.015c0.562-0.503 1.304-0.809 2.118-0.809h4.235c0.814 0 1.556 0.306 2.118 0.809v0zM14.677 8.059v4.235h2.647v-4.235h-2.647zM21.294 10.441v1.588h0.529c0.987 0 1.816-0.675 2.051-1.588h-2.58zM10.706 10.441h-2.58c0.235 0.913 1.064 1.588 2.051 1.588h0.529v-1.588zM13.883 19.706c-1.17 0-2.118 0.948-2.118 2.118s0.948 2.118 2.118 2.118h4.235c1.169 0 2.118-0.948 2.118-2.118s-0.948-2.118-2.118-2.118h-4.235zM13.618 22.618c-0.438 0-0.794-0.356-0.794-0.794s0.356-0.794 0.794-0.794c0.439 0 0.794 0.356 0.794 0.794s-0.356 0.794-0.794 0.794zM18.383 22.618c-0.439 0-0.794-0.356-0.794-0.794s0.356-0.794 0.794-0.794c0.439 0 0.794 0.356 0.794 0.794s-0.355 0.794-0.794 0.794z"></path>
</symbol>



<symbol id="icon-decrease" viewBox="0 0 34 32">
<path d="M0 8.533c0-4.713 3.821-8.533 8.533-8.533h17.067c4.713 0 8.533 3.821 8.533 8.533v14.933c0 4.713-3.821 8.533-8.533 8.533h-17.067c-4.713 0-8.533-3.821-8.533-8.533v-14.933z"></path>
<path fill="#fff" style="fill: var(--color2, #fff)" d="M25.1 6.9c0.666 0.667 0.666 1.747 0 2.414l-10.74 10.74h6.689c0.943 0 1.707 0.764 1.707 1.707s-0.764 1.707-1.707 1.707h-10.809c-0.943 0-1.707-0.764-1.707-1.707v-10.809c0-0.943 0.764-1.707 1.707-1.707s1.707 0.764 1.707 1.707v6.689l10.74-10.74c0.666-0.666 1.747-0.666 2.414 0z"></path>
</symbol>
<symbol id="icon-increase" viewBox="0 0 34 32">
<path d="M0 8.533c0-4.713 3.821-8.533 8.533-8.533h17.067c4.713 0 8.533 3.821 8.533 8.533v14.933c0 4.713-3.821 8.533-8.533 8.533h-17.067c-4.713 0-8.533-3.821-8.533-8.533v-14.933z"></path>
<path fill="#fff" style="fill: var(--color2, #fff)" d="M9.469 24.531c-0.625-0.625-0.625-1.638 0-2.263l10.069-10.069h-6.271c-0.884 0-1.6-0.716-1.6-1.6s0.716-1.6 1.6-1.6h10.133c0.884 0 1.6 0.716 1.6 1.6v10.133c0 0.884-0.716 1.6-1.6 1.6s-1.6-0.716-1.6-1.6v-6.271l-10.069 10.069c-0.625 0.625-1.638 0.625-2.263 0z"></path>
</symbol>
</defs>
</svg>
