<svg aria-hidden="true" style="position: absolute; width: 0; height: 0; overflow: hidden;" version="1.1" xmlns="http://www.w3.org/2000/svg" xmlns:xlink="http://www.w3.org/1999/xlink">
<defs>
<symbol id="icon-Microsoft" viewBox="0 0 31 32">
<path fill="#f25022" style="fill: var(--color1, #f25022)" d="M14.545 2.182h-13.091v13.091h13.091v-13.091z"></path>
<path fill="#00a4ef" style="fill: var(--color2, #00a4ef)" d="M14.545 16.727h-13.091v13.091h13.091v-13.091z"></path>
<path fill="#7fba00" style="fill: var(--color3, #7fba00)" d="M29.091 2.182h-13.091v13.091h13.091v-13.091z"></path>
<path fill="#ffb900" style="fill: var(--color4, #ffb900)" d="M29.091 16.727h-13.091v13.091h13.091v-13.091z"></path>
</symbol>
<symbol id="icon-Apple" viewBox="0 0 32 32">
<path d="M28.374 24.565c-0.464 1.071-1.013 2.058-1.649 2.964-0.867 1.236-1.577 2.092-2.124 2.567-0.848 0.78-1.757 1.179-2.73 1.202-0.699 0-1.541-0.199-2.521-0.602-0.984-0.401-1.888-0.6-2.714-0.6-0.867 0-1.797 0.199-2.791 0.6-0.996 0.403-1.799 0.613-2.412 0.634-0.933 0.040-1.863-0.371-2.791-1.234-0.592-0.517-1.334-1.403-2.221-2.658-0.953-1.34-1.736-2.894-2.349-4.666-0.657-1.914-0.986-3.767-0.986-5.561 0-2.055 0.444-3.828 1.334-5.313 0.699-1.193 1.629-2.134 2.793-2.825s2.422-1.043 3.776-1.066c0.741 0 1.713 0.229 2.921 0.68 1.204 0.452 1.977 0.681 2.317 0.681 0.253 0 1.113-0.268 2.569-0.802 1.377-0.496 2.539-0.701 3.492-0.62 2.58 0.208 4.518 1.225 5.808 3.058-2.308 1.398-3.449 3.356-3.426 5.869 0.021 1.957 0.731 3.585 2.126 4.878 0.632 0.6 1.338 1.064 2.124 1.393-0.17 0.494-0.35 0.967-0.541 1.422zM22.457 1.28c0 1.534-0.56 2.966-1.677 4.291-1.348 1.576-2.978 2.486-4.746 2.343-0.023-0.184-0.036-0.378-0.036-0.581 0-1.472 0.641-3.048 1.779-4.336 0.568-0.652 1.291-1.195 2.167-1.627 0.875-0.426 1.702-0.662 2.48-0.702 0.023 0.205 0.032 0.41 0.032 0.613v0z"></path>
</symbol>
<symbol id="icon-Google" viewBox="0 0 32 32">
<path fill="#fbbb00" style="fill: var(--color1, #fbbb00)" d="M7.092 19.338l-1.114 4.158-4.071 0.086c-1.217-2.257-1.907-4.839-1.907-7.582 0-2.653 0.645-5.155 1.789-7.358h0.001l3.624 0.665 1.588 3.603c-0.332 0.969-0.513 2.009-0.513 3.091 0 1.175 0.213 2.3 0.603 3.338z"></path>
<path fill="#518ef8" style="fill: var(--color2, #518ef8)" d="M31.72 13.011c0.184 0.968 0.28 1.967 0.28 2.989 0 1.145-0.12 2.263-0.35 3.341-0.779 3.668-2.814 6.87-5.633 9.137l-0.001-0.001-4.565-0.233-0.646-4.033c1.871-1.097 3.333-2.814 4.103-4.869h-8.556v-6.33h15.369z"></path>
<path fill="#28b446" style="fill: var(--color3, #28b446)" d="M26.016 28.477l0.001 0.001c-2.742 2.204-6.225 3.523-10.017 3.523-6.093 0-11.391-3.406-14.093-8.418l5.185-4.244c1.351 3.606 4.83 6.173 8.908 6.173 1.753 0 3.395-0.474 4.804-1.301l5.211 4.266z"></path>
<path fill="#f14336" style="fill: var(--color4, #f14336)" d="M26.213 3.683l-5.183 4.243c-1.458-0.912-3.182-1.438-5.029-1.438-4.171 0-7.714 2.685-8.998 6.42l-5.213-4.267c2.663-5.134 8.027-8.642 14.211-8.642 3.882 0 7.442 1.383 10.213 3.683z"></path>
</symbol>
<symbol id="icon-Arrow" viewBox="0 0 32 32">
<path d="M15.609 6.276c0.521-0.521 0.521-1.365 0-1.886s-1.365-0.521-1.886 0l-10.667 10.667c-0.521 0.521-0.521 1.365 0 1.886l10.667 10.667c0.521 0.521 1.365 0.521 1.886 0s0.521-1.365 0-1.886l-8.391-8.391h20.781c0.736 0 1.333-0.597 1.333-1.333s-0.597-1.333-1.333-1.333h-20.781l8.391-8.391z"></path>
</symbol>
<symbol id="icon-Eye" viewBox="0 0 43 32">
<path  stroke-width="2.6667" stroke-miterlimit="4" stroke-linecap="round" stroke-linejoin="round" d="M1.778 16c0 0 7.111-14.222 19.556-14.222s19.556 14.222 19.556 14.222c0 0-7.111 14.222-19.556 14.222s-19.556-14.222-19.556-14.222z"></path>
<path stroke-width="2.6667" stroke-miterlimit="4" stroke-linecap="round" stroke-linejoin="round"  d="M21.333 21.333c2.946 0 5.333-2.388 5.333-5.333s-2.388-5.333-5.333-5.333c-2.945 0-5.333 2.388-5.333 5.333s2.388 5.333 5.333 5.333z"></path>
</symbol>
<symbol id="icon-Eye-off" viewBox="0 0 32 32">
<path d="M0.626 0.626c0.391-0.391 1.024-0.391 1.414 0l11.836 11.836c0 0 0-0 0 0 0.002 0.002 0.005 0.004 0.007 0.007 0 0 0-0 0 0l5.648 5.648c0 0 0-0 0 0 0.002 0.002 0.005 0.004 0.007 0.007 0 0-0-0 0 0l11.836 11.836c0.391 0.391 0.391 1.024 0 1.414s-1.024 0.391-1.414 0l-6.148-6.148c-2.304 1.544-5.010 2.395-7.796 2.44l-0.016 0c-5.066 0-8.979-2.893-11.563-5.649-1.301-1.388-2.295-2.772-2.965-3.808-0.335-0.519-0.59-0.953-0.763-1.261-0.086-0.154-0.152-0.276-0.198-0.361-0.023-0.043-0.040-0.076-0.052-0.1l-0.014-0.028-0.006-0.011c-0-0-0.001-0.002 0.894-0.449l-0.894 0.447c-0.145-0.291-0.14-0.634 0.013-0.92 1.546-2.881 3.628-5.437 6.131-7.53l-5.957-5.957c-0.391-0.391-0.391-1.024 0-1.414zM8.003 9.417c-2.231 1.838-4.105 4.070-5.53 6.587 0.155 0.274 0.382 0.659 0.68 1.12 0.622 0.964 1.545 2.246 2.744 3.525 2.414 2.575 5.832 5.014 10.096 5.017 2.264-0.039 4.466-0.694 6.374-1.887l-3.59-3.59c-0.263 0.185-0.545 0.345-0.841 0.477-0.613 0.273-1.275 0.42-1.947 0.432s-1.338-0.112-1.961-0.363c-0.623-0.251-1.188-0.626-1.663-1.101s-0.849-1.040-1.101-1.663c-0.251-0.623-0.375-1.289-0.363-1.961s0.159-1.333 0.432-1.947c0.132-0.296 0.292-0.577 0.477-0.841l-3.807-3.807zM13.26 14.675c-0.036 0.067-0.069 0.135-0.1 0.204-0.164 0.368-0.252 0.765-0.259 1.168s0.067 0.803 0.218 1.177c0.151 0.374 0.375 0.713 0.66 0.998s0.624 0.509 0.998 0.66c0.374 0.151 0.774 0.225 1.177 0.218s0.8-0.095 1.168-0.259c0.069-0.031 0.138-0.065 0.204-0.101l-4.065-4.065zM15.998 6.333c-0.865-0.002-1.727 0.097-2.57 0.294-0.538 0.126-1.076-0.208-1.202-0.746s0.208-1.076 0.746-1.202c0.993-0.232 2.009-0.349 3.029-0.346 5.066 0 8.978 2.893 11.562 5.649 1.301 1.388 2.295 2.772 2.965 3.808 0.335 0.519 0.59 0.953 0.763 1.261 0.087 0.154 0.152 0.276 0.198 0.361 0.023 0.043 0.040 0.076 0.052 0.1l0.014 0.028 0.004 0.008 0.001 0.003c0 0 0.001 0.002-0.894 0.449l-0.882-0.471c-0.084 0.157-0.17 0.313-0.257 0.468-0.155-0.274-0.383-0.66-0.68-1.121-0.623-0.964-1.545-2.246-2.744-3.525-2.416-2.577-5.837-5.017-10.104-5.017h-0.002zM29.528 15.997c-0.721 1.279-1.56 2.489-2.506 3.613-0.356 0.423-0.301 1.053 0.121 1.409s1.053 0.301 1.409-0.121c1.15-1.367 2.155-2.85 2.997-4.426 0.153-0.286 0.158-0.629 0.013-0.919l-0.894 0.447c-0.894 0.447-0.894 0.447-0.894 0.448l-0.002-0.003-0.009-0.018c-0.009-0.017-0.022-0.043-0.041-0.079-0.038-0.071-0.095-0.178-0.173-0.316-0.007-0.011-0.013-0.023-0.020-0.035z"></path>
</symbol>
<symbol id="icon-upload-cloud" viewBox="0 0 32 32">
<path  d="M11.698 3.405c1.709-0.063 3.41 0.262 4.975 0.951s2.954 1.724 4.061 3.027c0.944 1.11 1.662 2.39 2.119 3.769h0.904c1.652 0.001 3.257 0.552 4.56 1.566s2.233 2.434 2.64 4.034c0.407 1.601 0.27 3.291-0.39 4.805s-1.806 2.765-3.256 3.556c-0.47 0.256-1.059 0.083-1.316-0.387s-0.083-1.059 0.387-1.316c1.072-0.584 1.919-1.509 2.407-2.628s0.589-2.369 0.288-3.552c-0.301-1.183-0.988-2.232-1.951-2.982s-2.149-1.157-3.37-1.158h-1.628c-0.442 0-0.828-0.299-0.939-0.727-0.355-1.372-1.016-2.645-1.933-3.725s-2.068-1.937-3.365-2.508c-1.297-0.571-2.706-0.84-4.122-0.788s-2.802 0.425-4.053 1.089c-1.251 0.665-2.336 1.605-3.171 2.749s-1.401 2.463-1.654 3.857c-0.253 1.394-0.186 2.828 0.195 4.192s1.066 2.625 2.005 3.687c0.355 0.401 0.317 1.014-0.085 1.369s-1.014 0.317-1.369-0.084c-1.132-1.281-1.96-2.803-2.419-4.45s-0.54-3.377-0.235-5.060c0.305-1.683 0.988-3.274 1.996-4.655s2.317-2.515 3.827-3.317c1.51-0.802 3.183-1.252 4.891-1.315zM16 15.030c0.257 0 0.504 0.102 0.686 0.284l5.172 5.172c0.379 0.379 0.379 0.993 0 1.371s-0.993 0.379-1.371 0l-3.516-3.516v9.295c0 0.536-0.434 0.97-0.97 0.97s-0.97-0.434-0.97-0.97v-9.295l-3.516 3.516c-0.379 0.379-0.993 0.379-1.371 0s-0.379-0.993 0-1.371l5.172-5.172c0.182-0.182 0.428-0.284 0.686-0.284z"></path>
</symbol>
</defs>
</svg>
