<svg aria-hidden="true" style="position: absolute; width: 0; height: 0; overflow: hidden;" version="1.1" xmlns="http://www.w3.org/2000/svg" xmlns:xlink="http://www.w3.org/1999/xlink">
<defs>
<symbol id="icon-logo-green" viewBox="0 0 45 32">
<path fill="#39a935" style="fill: var(--color1, #39a935)" d="M35.496 4.469l-7.136-4.123c-0.398-0.23-0.843-0.346-1.289-0.346h-0.002c-0.445 0-0.891 0.114-1.29 0.346l-7.136 4.123c-0.798 0.462-1.29 1.314-1.29 2.234v8.071c0 1.030 0.55 1.981 1.44 2.497l0.023 0.013 6.479 2.801 0.357-0.826-6.43-2.779c-0.6-0.357-0.969-1.005-0.969-1.706v-8.071c0-0.601 0.32-1.155 0.84-1.456l7.136-4.123c0.259-0.15 0.55-0.225 0.84-0.225s0.581 0.075 0.84 0.225l7.136 4.123c0.52 0.3 0.84 0.855 0.84 1.456v8.071c0 0.7-0.369 1.346-0.967 1.704l-6.37 2.755 0.357 0.826 6.44-2.788c0.892-0.516 1.44-1.467 1.44-2.497v-8.071c0-0.922-0.491-1.774-1.29-2.234z"></path>
<path fill="#39a935" style="fill: var(--color1, #39a935)" d="M32.327 13.488c0.711 0 1.285-0.576 1.287-1.286 0-0.71-0.576-1.286-1.287-1.286s-1.285 0.576-1.285 1.286c0 0.028 0 0.054 0.003 0.082l-4.424 1.823v17.455h0.897v-16.853l3.892-1.604c0.233 0.237 0.558 0.384 0.917 0.384zM32.053 11.927c0.072-0.070 0.165-0.114 0.274-0.114s0.202 0.042 0.274 0.114c0.070 0.072 0.113 0.165 0.113 0.274s-0.042 0.202-0.113 0.274c-0.072 0.070-0.165 0.114-0.274 0.114s-0.202-0.042-0.274-0.113c-0.070-0.072-0.113-0.165-0.113-0.274 0-0.108 0.042-0.202 0.113-0.274v-0.002z"></path>
<path fill="#39a935" style="fill: var(--color1, #39a935)" d="M22.102 9.15c-0.71 0-1.285 0.576-1.287 1.286 0 0.71 0.576 1.286 1.287 1.286 0.377 0 0.716-0.163 0.951-0.421l4.43 1.769v-5.84c0.489-0.183 0.837-0.653 0.837-1.206 0-0.712-0.576-1.286-1.285-1.286-0.711 0-1.285 0.576-1.285 1.286 0 0.552 0.347 1.023 0.837 1.206v4.514l-3.197-1.276c0-0.010 0-0.020 0-0.031 0-0.712-0.576-1.286-1.285-1.286l-0.002-0.002zM22.376 10.71c-0.072 0.070-0.165 0.113-0.274 0.114-0.108 0-0.202-0.042-0.274-0.114-0.070-0.072-0.114-0.165-0.114-0.274s0.042-0.202 0.114-0.274c0.072-0.070 0.165-0.113 0.274-0.114 0.109 0 0.202 0.042 0.274 0.114 0.070 0.072 0.114 0.165 0.114 0.274s-0.042 0.202-0.114 0.274zM26.76 5.75c0.072-0.070 0.165-0.113 0.274-0.114 0.108 0 0.202 0.042 0.274 0.114 0.070 0.072 0.113 0.165 0.114 0.274 0 0.108-0.042 0.202-0.114 0.274-0.072 0.070-0.165 0.113-0.274 0.114-0.109 0-0.202-0.042-0.274-0.114-0.070-0.072-0.113-0.165-0.114-0.274 0-0.109 0.042-0.202 0.114-0.274z"></path>
<path fill="#39a935" style="fill: var(--color1, #39a935)" d="M4.471 28.42c0.223-0.206 0.396-0.455 0.519-0.747s0.184-0.602 0.184-0.927c0-0.279-0.052-0.553-0.16-0.823-0.106-0.269-0.256-0.512-0.449-0.728-0.192-0.217-0.419-0.388-0.679-0.519s-0.545-0.194-0.858-0.194h-3.029v7.082h0.897v-2.543h1.874l1.615 2.543h1.016l-1.714-2.713c0.298-0.080 0.559-0.224 0.783-0.429v-0.002zM3.040 28.221h-2.143v-2.943h2.083c0.233 0 0.445 0.067 0.638 0.199 0.192 0.134 0.349 0.312 0.468 0.534 0.119 0.224 0.179 0.467 0.179 0.733s-0.052 0.503-0.155 0.728c-0.103 0.227-0.246 0.408-0.429 0.543-0.183 0.137-0.398 0.204-0.643 0.204l0.002 0.002z"></path>
<path fill="#39a935" style="fill: var(--color1, #39a935)" d="M8.642 28.32h3.319v-0.747h-3.319v-2.295h3.817v-0.798h-4.714v7.082h4.804v-0.798h-3.906v-2.443z"></path>
<path fill="#39a935" style="fill: var(--color1, #39a935)" d="M21.131 30.524l-1.217-2.921 1.227-3.081h-0.848l-0.946 2.463-0.938-2.463h-0.846l1.225 3.081-1.205 2.921-2.403-6.044h-0.966l2.949 7.082h0.778l1.416-3.341 1.404 3.341h0.778l2.96-7.082h-0.977l-2.391 6.044z"></path>
<path fill="#39a935" style="fill: var(--color1, #39a935)" d="M35.491 30.016l-4.324-5.536h-0.759v7.082h0.897v-5.425l4.267 5.425h0.817v-7.072h-0.899v5.526z"></path>
<path fill="#39a935" style="fill: var(--color1, #39a935)" d="M44.772 26.231c-0.253-0.535-0.633-0.961-1.142-1.276-0.507-0.317-1.142-0.473-1.899-0.473h-2.452v7.082h2.452c0.698 0 1.303-0.147 1.814-0.439s0.907-0.705 1.186-1.237 0.419-1.157 0.419-1.875c0-0.651-0.127-1.245-0.378-1.781zM43.955 29.412c-0.193 0.416-0.475 0.744-0.847 0.987s-0.83 0.364-1.375 0.364h-1.554v-5.486h1.554c0.538 0 0.993 0.116 1.365 0.349s0.656 0.555 0.853 0.968c0.196 0.413 0.294 0.885 0.294 1.417s-0.096 0.986-0.289 1.402l-0.001-0.002z"></path>
</symbol>

<symbol id="icon-logo" viewBox="0 0 45 32">
<path  d="M35.496 4.469l-7.136-4.123c-0.398-0.23-0.843-0.346-1.289-0.346h-0.002c-0.445 0-0.891 0.114-1.29 0.346l-7.136 4.123c-0.798 0.462-1.29 1.314-1.29 2.234v8.071c0 1.030 0.55 1.981 1.44 2.497l0.023 0.013 6.479 2.801 0.357-0.826-6.43-2.779c-0.6-0.357-0.969-1.005-0.969-1.706v-8.071c0-0.601 0.32-1.155 0.84-1.456l7.136-4.123c0.259-0.15 0.55-0.225 0.84-0.225s0.581 0.075 0.84 0.225l7.136 4.123c0.52 0.3 0.84 0.855 0.84 1.456v8.071c0 0.7-0.369 1.346-0.967 1.704l-6.37 2.755 0.357 0.826 6.44-2.788c0.892-0.516 1.44-1.467 1.44-2.497v-8.071c0-0.922-0.491-1.774-1.29-2.234z"></path>
<path  d="M32.327 13.488c0.711 0 1.285-0.576 1.287-1.286 0-0.71-0.576-1.286-1.287-1.286s-1.285 0.576-1.285 1.286c0 0.028 0 0.054 0.003 0.082l-4.424 1.823v17.455h0.897v-16.853l3.892-1.604c0.233 0.237 0.558 0.384 0.917 0.384zM32.053 11.927c0.072-0.070 0.165-0.114 0.274-0.114s0.202 0.042 0.274 0.114c0.070 0.072 0.113 0.165 0.113 0.274s-0.042 0.202-0.113 0.274c-0.072 0.070-0.165 0.114-0.274 0.114s-0.202-0.042-0.274-0.113c-0.070-0.072-0.113-0.165-0.113-0.274 0-0.108 0.042-0.202 0.113-0.274v-0.002z"></path>
<path  d="M22.102 9.15c-0.71 0-1.285 0.576-1.287 1.286 0 0.71 0.576 1.286 1.287 1.286 0.377 0 0.716-0.163 0.951-0.421l4.43 1.769v-5.84c0.489-0.183 0.837-0.653 0.837-1.206 0-0.712-0.576-1.286-1.285-1.286-0.711 0-1.285 0.576-1.285 1.286 0 0.552 0.347 1.023 0.837 1.206v4.514l-3.197-1.276c0-0.010 0-0.020 0-0.031 0-0.712-0.576-1.286-1.285-1.286l-0.002-0.002zM22.376 10.71c-0.072 0.070-0.165 0.113-0.274 0.114-0.108 0-0.202-0.042-0.274-0.114-0.070-0.072-0.114-0.165-0.114-0.274s0.042-0.202 0.114-0.274c0.072-0.070 0.165-0.113 0.274-0.114 0.109 0 0.202 0.042 0.274 0.114 0.070 0.072 0.114 0.165 0.114 0.274s-0.042 0.202-0.114 0.274zM26.76 5.75c0.072-0.070 0.165-0.113 0.274-0.114 0.108 0 0.202 0.042 0.274 0.114 0.070 0.072 0.113 0.165 0.114 0.274 0 0.108-0.042 0.202-0.114 0.274-0.072 0.070-0.165 0.113-0.274 0.114-0.109 0-0.202-0.042-0.274-0.114-0.070-0.072-0.113-0.165-0.114-0.274 0-0.109 0.042-0.202 0.114-0.274z"></path>
<path  d="M4.471 28.42c0.223-0.206 0.396-0.455 0.519-0.747s0.184-0.602 0.184-0.927c0-0.279-0.052-0.553-0.16-0.823-0.106-0.269-0.256-0.512-0.449-0.728-0.192-0.217-0.419-0.388-0.679-0.519s-0.545-0.194-0.858-0.194h-3.029v7.082h0.897v-2.543h1.874l1.615 2.543h1.016l-1.714-2.713c0.298-0.080 0.559-0.224 0.783-0.429v-0.002zM3.040 28.221h-2.143v-2.943h2.083c0.233 0 0.445 0.067 0.638 0.199 0.192 0.134 0.349 0.312 0.468 0.534 0.119 0.224 0.179 0.467 0.179 0.733s-0.052 0.503-0.155 0.728c-0.103 0.227-0.246 0.408-0.429 0.543-0.183 0.137-0.398 0.204-0.643 0.204l0.002 0.002z"></path>
<path  d="M8.642 28.32h3.319v-0.747h-3.319v-2.295h3.817v-0.798h-4.714v7.082h4.804v-0.798h-3.906v-2.443z"></path>
<path  d="M21.131 30.524l-1.217-2.921 1.227-3.081h-0.848l-0.946 2.463-0.938-2.463h-0.846l1.225 3.081-1.205 2.921-2.403-6.044h-0.966l2.949 7.082h0.778l1.416-3.341 1.404 3.341h0.778l2.96-7.082h-0.977l-2.391 6.044z"></path>
<path  d="M35.491 30.016l-4.324-5.536h-0.759v7.082h0.897v-5.425l4.267 5.425h0.817v-7.072h-0.899v5.526z"></path>
<path  d="M44.772 26.231c-0.253-0.535-0.633-0.961-1.142-1.276-0.507-0.317-1.142-0.473-1.899-0.473h-2.452v7.082h2.452c0.698 0 1.303-0.147 1.814-0.439s0.907-0.705 1.186-1.237 0.419-1.157 0.419-1.875c0-0.651-0.127-1.245-0.378-1.781zM43.955 29.412c-0.193 0.416-0.475 0.744-0.847 0.987s-0.83 0.364-1.375 0.364h-1.554v-5.486h1.554c0.538 0 0.993 0.116 1.365 0.349s0.656 0.555 0.853 0.968c0.196 0.413 0.294 0.885 0.294 1.417s-0.096 0.986-0.289 1.402l-0.001-0.002z"></path>
</symbol>
</defs>
</svg>
